<?xml version="1.0" encoding="UTF-8"?>
<svg width="14px" height="18px" viewBox="0 0 14 18" version="1.1" xmlns="http://www.w3.org/2000/svg" xmlns:xlink="http://www.w3.org/1999/xlink">
    <!-- Generator: Sketch 59.1 (86144) - https://sketch.com -->
    <title>Group 7 Copy</title>
    <desc>Created with Sketch.</desc>
    <g id="Page-1" stroke="none" stroke-width="1" fill="none" fill-rule="evenodd">
        <g id="0-login" transform="translate(-1069.000000, -483.000000)">
            <g id="Group-7-Copy" transform="translate(1070.000000, 484.000000)">
                <path d="M9.17647059,16 L2.82352941,16 C1.26423529,16 0,14.754087 0,13.2173913 L0,6.26086957 L12,6.26086957 L12,13.2173913 C12,14.754087 10.7357647,16 9.17647059,16 Z" id="Stroke-1" stroke="#000070"></path>
                <path d="M2.47058824,6.26086957 L2.47058824,3.47826087 C2.47058824,1.55721739 4.05070588,0 6,0 L6,0 C7.94929412,0 9.52941176,1.55721739 9.52941176,3.47826087 L9.52941176,6.26086957" id="Stroke-3" stroke="#000070"></path>
                <path d="M6,12.8695652 L6,12.8695652 C5.77835294,12.8695652 5.58635294,12.7213913 5.53729412,12.5126957 L4.968,10.6410435 C4.81729412,10.0006957 5.32094118,9.39130435 6,9.39130435 L6,9.39130435 C6.67905882,9.39130435 7.18270588,10.0006957 7.032,10.6410435 L6.46270588,12.5126957 C6.41364706,12.7213913 6.22164706,12.8695652 6,12.8695652" id="Fill-5" fill="#000070"></path>
            </g>
        </g>
    </g>
</svg>