<?xml version="1.0" encoding="UTF-8"?>
<svg width="389px" height="254px" viewBox="0 0 389 254" version="1.1" xmlns="http://www.w3.org/2000/svg" xmlns:xlink="http://www.w3.org/1999/xlink">
    <!-- Generator: Sketch 59.1 (86144) - https://sketch.com -->
    <title>Group 49</title>
    <desc>Created with Sketch.</desc>
    <defs>
        <polygon id="path-1" points="0 253.727345 388.535333 253.727345 388.535333 0 0 0"></polygon>
    </defs>
    <g id="Page-1" stroke="none" stroke-width="1" fill="none" fill-rule="evenodd">
        <g id="0-login" transform="translate(-115.000000, -412.000000)">
            <g id="Group-49" transform="translate(115.000000, 412.000000)">
                <path d="M26.7162079,17.4577644 C29.0962023,17.4577644 30.1545356,16.3994311 30.1545356,14.0194367 L30.1545356,11.9027701 C30.1545356,9.52205819 29.0962023,8.46444237 26.7162079,8.46444237 L11.6383661,8.46444237 L11.6383661,17.4577644 L26.7162079,17.4577644 Z M3.17385198,1.05826158 L29.8904904,1.05826158 C35.180722,1.05826158 38.6190497,4.49658927 38.6190497,9.7868209 L38.6190497,16.1353859 C38.6190497,23.5415667 31.4769141,24.3351373 31.4769141,24.3351373 L39.4126203,33.8572672 L39.4126203,38.0898831 L31.7416768,38.0898831 L21.4259763,24.8639452 L11.6383661,24.8639452 L11.6383661,38.0898831 L3.17385198,38.0898831 L3.17385198,1.05826158 Z" id="Fill-1" fill="#FFFFFF"></path>
                <path d="M65.330235,21.6900215 L65.330235,19.5740723 C65.330235,17.4581232 64.5373819,16.6645525 62.4207153,16.6645525 L56.0728678,16.6645525 C53.9562011,16.6645525 53.163348,17.4581232 53.163348,19.5740723 L53.163348,21.6900215 L65.330235,21.6900215 Z M45.2269243,17.9869311 C45.2269243,13.7543153 48.4012068,10.5807503 52.6338226,10.5807503 L65.8597605,10.5807503 C70.0923763,10.5807503 73.2666588,13.7543153 73.2666588,17.9869311 L73.2666588,27.509061 L53.163348,27.509061 L53.163348,29.0962023 C53.163348,31.2121514 53.9562011,32.005722 56.0728678,32.005722 L71.9435627,32.005722 L71.9435627,38.0895243 L52.6338226,38.0895243 C48.4012068,38.0895243 45.2269243,34.9159593 45.2269243,30.6833435 L45.2269243,17.9869311 Z" id="Fill-3" fill="#FFFFFF"></path>
                <polygon id="Fill-5" fill="#FFFFFF" points="77.4957588 14.8126486 77.4957588 11.1095582 85.1659847 11.1095582 91.7785949 29.360965 92.3088379 29.360965 98.9207305 11.1095582 106.591674 11.1095582 106.591674 14.8126486 96.5407362 38.0895243 87.5466966 38.0895243"></polygon>
                <path d="M128.014637,31.7415333 C130.130586,31.7415333 130.924874,30.9479627 130.924874,28.8320136 L130.924874,20.3674994 C130.924874,18.2515503 130.130586,17.4579797 128.014637,17.4579797 L120.608456,17.4579797 C118.492507,17.4579797 117.698936,18.2515503 117.698936,20.3674994 L117.698936,28.8320136 C117.698936,30.9479627 118.492507,31.7415333 120.608456,31.7415333 L128.014637,31.7415333 Z M109.76323,17.9867876 C109.76323,13.7548893 112.937512,10.5806068 117.170128,10.5806068 L131.453682,10.5806068 C135.68558,10.5806068 138.859863,13.7548893 138.859863,17.9867876 L138.859863,31.2127254 C138.859863,35.4446237 135.68558,38.6189062 131.453682,38.6189062 L117.170128,38.6189062 C112.937512,38.6189062 109.76323,35.4446237 109.76323,31.2127254 L109.76323,17.9867876 Z" id="Fill-7" fill="#FFFFFF"></path>
                <mask id="mask-2" fill="white">
                    <use xlink:href="#path-1"></use>
                </mask>
                <g id="Clip-10"></g>
                <polygon id="Fill-9" fill="#FFFFFF" mask="url(#mask-2)" points="145.468814 38.0899548 153.40452 38.0899548 153.40452 1.58714124 145.468814 1.58714124"></polygon>
                <path d="M160.54522,11.1094864 L168.480209,11.1094864 L168.480209,28.8320853 C168.480209,30.9480345 169.27378,31.7416051 171.389729,31.7416051 L175.88639,31.7416051 C178.796627,31.7416051 180.118288,30.4192266 180.118288,27.5089893 L180.118288,11.1094864 L188.054712,11.1094864 L188.054712,38.0901701 L182.234955,38.0901701 L180.912576,34.9158876 L180.648531,34.9158876 C180.648531,34.9158876 179.060672,38.618978 174.564011,38.618978 L167.951401,38.618978 C163.719503,38.618978 160.54522,35.4446955 160.54522,31.2127972 L160.54522,11.1094864 Z" id="Fill-11" fill="#FFFFFF" mask="url(#mask-2)"></path>
                <path d="M197.308707,17.4577644 L192.812046,17.4577644 L192.812046,11.1091994 L197.837515,11.1091994 L200.482989,3.70301864 L205.244413,3.70301864 L205.244413,11.1091994 L213.70821,11.1091994 L213.70821,15.0770525 L211.327498,17.4577644 L205.244413,17.4577644 L205.244413,28.3029904 C205.244413,30.4189395 206.037266,31.2125102 208.153215,31.2125102 L214.50178,31.2125102 L214.50178,38.0898831 L204.714888,38.0898831 C200.482989,38.0898831 197.308707,34.9156006 197.308707,30.6837023 L197.308707,17.4577644 Z" id="Fill-12" fill="#FFFFFF" mask="url(#mask-2)"></path>
                <path d="M220.583932,38.0899548 L228.518921,38.0899548 L228.518921,11.1092712 L220.583932,11.1092712 L220.583932,38.0899548 Z M220.583932,7.93570621 L228.518921,7.93570621 L228.518921,0 L220.583932,0 L220.583932,7.93570621 Z" id="Fill-13" fill="#FFFFFF" mask="url(#mask-2)"></path>
                <path d="M253.382005,31.7415333 C255.497954,31.7415333 256.291525,30.9479627 256.291525,28.8320136 L256.291525,20.3674994 C256.291525,18.2515503 255.497954,17.4579797 253.382005,17.4579797 L245.975824,17.4579797 C243.859875,17.4579797 243.065587,18.2515503 243.065587,20.3674994 L243.065587,28.8320136 C243.065587,30.9479627 243.859875,31.7415333 245.975824,31.7415333 L253.382005,31.7415333 Z M235.130598,17.9867876 C235.130598,13.7548893 238.304163,10.5806068 242.536779,10.5806068 L256.820333,10.5806068 C261.052231,10.5806068 264.226514,13.7548893 264.226514,17.9867876 L264.226514,31.2127254 C264.226514,35.4446237 261.052231,38.6189062 256.820333,38.6189062 L242.536779,38.6189062 C238.304163,38.6189062 235.130598,35.4446237 235.130598,31.2127254 L235.130598,17.9867876 Z" id="Fill-14" fill="#FFFFFF" mask="url(#mask-2)"></path>
                <path d="M270.571491,11.1094864 L276.389813,11.1094864 L277.712909,14.2837689 L277.977672,14.2837689 C277.977672,14.2837689 279.564095,10.5806785 284.061474,10.5806785 L290.674802,10.5806785 C294.9067,10.5806785 298.080982,13.754961 298.080982,17.9868593 L298.080982,38.0901701 L290.144559,38.0901701 L290.144559,20.3675712 C290.144559,18.251622 289.351706,17.4580514 287.235756,17.4580514 L282.738378,17.4580514 C279.828858,17.4580514 278.50648,18.7804299 278.50648,21.6899497 L278.50648,38.0901701 L270.571491,38.0901701 L270.571491,11.1094864 Z" id="Fill-15" fill="#FFFFFF" mask="url(#mask-2)"></path>
                <path d="M318.444536,32.5350322 C321.354773,32.5350322 322.676434,31.2126537 322.676434,28.3031339 L322.676434,26.9800379 L314.212637,26.9800379 C312.360733,26.9800379 311.56788,27.7736085 311.56788,29.6255124 L311.56788,29.8895576 C311.56788,31.7414616 312.360733,32.5350322 314.212637,32.5350322 L318.444536,32.5350322 Z M303.631456,29.0967045 C303.631456,24.8640887 306.805739,21.6898062 311.038355,21.6898062 L322.676434,21.6898062 L322.676434,20.102665 C322.676434,17.9867158 321.883581,17.1931452 319.767632,17.1931452 L306.012886,17.1931452 L306.012886,11.1093429 L323.206677,11.1093429 C327.438575,11.1093429 330.612858,14.2836254 330.612858,18.5155237 L330.612858,38.0900266 L324.793101,38.0900266 L323.470722,34.9157441 L323.206677,34.9157441 C323.206677,34.9157441 321.618818,38.6188345 317.122157,38.6188345 L311.038355,38.6188345 C306.805739,38.6188345 303.631456,35.444552 303.631456,31.2126537 L303.631456,29.0967045 Z" id="Fill-16" fill="#FFFFFF" mask="url(#mask-2)"></path>
                <path d="M337.486715,11.1094864 L343.305037,11.1094864 L344.628133,14.2837689 L344.892895,14.2837689 C344.892895,14.2837689 346.479319,10.5806785 350.976698,10.5806785 L357.590025,10.5806785 L357.590025,17.9868593 L349.653602,17.9868593 C346.744082,17.9868593 345.421703,19.3092379 345.421703,22.2187576 L345.421703,38.0901701 L337.486715,38.0901701 L337.486715,11.1094864 Z" id="Fill-17" fill="#FFFFFF" mask="url(#mask-2)"></path>
                <path d="M362.612983,40.205904 L367.374407,40.205904 C368.696785,40.205904 369.490356,39.4123333 370.019164,37.8251921 L370.019164,37.2963842 L359.967508,14.8123616 L359.967508,11.1092712 L367.374407,11.1092712 L374.515825,29.0966328 L375.04535,29.0966328 L381.129153,11.1092712 L388.535333,11.1092712 L388.535333,14.8123616 L379.277966,39.1475706 C377.372966,44.1737571 374.515825,47.0832768 369.225593,47.0832768 L362.612983,47.0832768 L362.612983,40.205904 Z" id="Fill-18" fill="#FFFFFF" mask="url(#mask-2)"></path>
                <path d="M1.85125819,99.5648429 L24.8640887,99.5648429 C26.9800379,99.5648429 27.774326,98.7712723 27.774326,96.6553232 L27.774326,96.1265153 C27.774326,94.2746113 26.9800379,93.5341367 24.8640887,93.216278 L10.0517271,90.8355661 C4.76149548,89.9896169 1.85125819,87.1324757 1.85125819,82.6358147 L1.85125819,78.6679616 C1.85125819,73.3777299 5.29030339,69.9394023 10.580535,69.9394023 L35.1805068,69.9394023 L35.1805068,74.700826 L32.5350322,77.3455831 L13.2260096,77.3455831 C11.1093429,77.3455831 10.3157723,78.1391537 10.3157723,80.2551028 L10.3157723,80.7846282 C10.3157723,82.6358147 11.1093429,83.3762893 13.2260096,83.694148 L28.0383712,86.0748599 C33.3286028,86.920809 36.2388401,89.7779503 36.2388401,94.2746113 L36.2388401,98.2424644 C36.2388401,103.532696 32.7997949,106.971024 27.5095633,106.971024 L1.85125819,106.971024 L1.85125819,99.5648429 Z" id="Fill-19" fill="#FFFFFF" mask="url(#mask-2)"></path>
                <path d="M59.7764605,100.622889 C61.8924096,100.622889 62.6859802,99.8293186 62.6859802,97.7133695 L62.6859802,89.2488554 C62.6859802,87.1329062 61.8924096,86.3393356 59.7764605,86.3393356 L52.3702797,86.3393356 C50.2543305,86.3393356 49.4607599,87.1329062 49.4607599,89.2488554 L49.4607599,97.7133695 C49.4607599,99.8293186 50.2543305,100.622889 52.3702797,100.622889 L59.7764605,100.622889 Z M41.5250537,86.8681435 C41.5250537,82.6362452 44.6986186,79.4619627 48.9312345,79.4619627 L63.2155056,79.4619627 C67.447404,79.4619627 70.6216864,82.6362452 70.6216864,86.8681435 L70.6216864,100.094081 C70.6216864,104.32598 67.447404,107.500262 63.2155056,107.500262 L48.9312345,107.500262 C44.6986186,107.500262 41.5250537,104.32598 41.5250537,100.094081 L41.5250537,86.8681435 Z" id="Fill-20" fill="#FFFFFF" mask="url(#mask-2)"></path>
                <polygon id="Fill-21" fill="#FFFFFF" mask="url(#mask-2)" points="77.2310678 106.971311 85.166774 106.971311 85.166774 70.4684972 77.2310678 70.4684972"></polygon>
                <path d="M92.3063983,79.9908424 L100.242105,79.9908424 L100.242105,97.7134412 C100.242105,99.8293904 101.034958,100.622961 103.150907,100.622961 L107.648285,100.622961 C110.557805,100.622961 111.880184,99.3005825 111.880184,96.3903452 L111.880184,79.9908424 L119.81589,79.9908424 L119.81589,106.971526 L113.996133,106.971526 L112.673754,103.797244 L112.409709,103.797244 C112.409709,103.797244 110.822568,107.500334 106.325189,107.500334 L99.7125791,107.500334 C95.4806808,107.500334 92.3063983,104.326051 92.3063983,100.094153 L92.3063983,79.9908424 Z" id="Fill-22" fill="#FFFFFF" mask="url(#mask-2)"></path>
                <path d="M129.070531,86.3391203 L124.573869,86.3391203 L124.573869,79.9905554 L129.599338,79.9905554 L132.244813,72.5843746 L137.006237,72.5843746 L137.006237,79.9905554 L145.470033,79.9905554 L145.470033,83.9584085 L143.089321,86.3391203 L137.006237,86.3391203 L137.006237,97.1843463 C137.006237,99.3002955 137.79909,100.093866 139.915039,100.093866 L146.263604,100.093866 L146.263604,106.971239 L136.476711,106.971239 C132.244813,106.971239 129.070531,103.796956 129.070531,99.5650582 L129.070531,86.3391203 Z" id="Fill-23" fill="#FFFFFF" mask="url(#mask-2)"></path>
                <path d="M152.345469,106.971311 L160.280458,106.971311 L160.280458,79.9906271 L152.345469,79.9906271 L152.345469,106.971311 Z M152.345469,76.8170621 L160.280458,76.8170621 L160.280458,68.8813559 L152.345469,68.8813559 L152.345469,76.8170621 Z" id="Fill-24" fill="#FFFFFF" mask="url(#mask-2)"></path>
                <path d="M185.143183,100.622889 C187.259132,100.622889 188.05342,99.8293186 188.05342,97.7133695 L188.05342,89.2488554 C188.05342,87.1329062 187.259132,86.3393356 185.143183,86.3393356 L177.737002,86.3393356 C175.621053,86.3393356 174.826765,87.1329062 174.826765,89.2488554 L174.826765,97.7133695 C174.826765,99.8293186 175.621053,100.622889 177.737002,100.622889 L185.143183,100.622889 Z M166.891776,86.8681435 C166.891776,82.6362452 170.066059,79.4619627 174.298675,79.4619627 L188.581511,79.4619627 C192.813409,79.4619627 195.987692,82.6362452 195.987692,86.8681435 L195.987692,100.094081 C195.987692,104.32598 192.813409,107.500262 188.581511,107.500262 L174.298675,107.500262 C170.066059,107.500262 166.891776,104.32598 166.891776,100.094081 L166.891776,86.8681435 Z" id="Fill-25" fill="#FFFFFF" mask="url(#mask-2)"></path>
                <path d="M202.333386,79.9908424 L208.151708,79.9908424 L209.474805,83.1651249 L209.739567,83.1651249 C209.739567,83.1651249 211.325991,79.4620345 215.823369,79.4620345 L222.436697,79.4620345 C226.668595,79.4620345 229.842878,82.6363169 229.842878,86.8682153 L229.842878,106.971526 L221.906454,106.971526 L221.906454,89.2489271 C221.906454,87.132978 221.113601,86.3394073 218.997652,86.3394073 L214.500273,86.3394073 C211.590754,86.3394073 210.268375,87.6617859 210.268375,90.5713056 L210.268375,106.971526 L202.333386,106.971526 L202.333386,79.9908424 Z" id="Fill-26" fill="#FFFFFF" mask="url(#mask-2)"></path>
                <polygon id="Fill-27" fill="#FFFFFF" mask="url(#mask-2)" points="252.32116 69.9393305 283.53446 69.9393305 283.53446 74.7007542 280.888268 77.3455113 260.785675 77.3455113 260.785675 86.3388333 277.714703 86.3388333 277.714703 93.7457316 260.785675 93.7457316 260.785675 106.970952 252.32116 106.970952"></polygon>
                <path d="M302.840038,100.622889 C304.955988,100.622889 305.750276,99.8293186 305.750276,97.7133695 L305.750276,89.2488554 C305.750276,87.1329062 304.955988,86.3393356 302.840038,86.3393356 L295.433858,86.3393356 C293.317908,86.3393356 292.524338,87.1329062 292.524338,89.2488554 L292.524338,97.7133695 C292.524338,99.8293186 293.317908,100.622889 295.433858,100.622889 L302.840038,100.622889 Z M284.588632,86.8681435 C284.588632,82.6362452 287.762914,79.4619627 291.99553,79.4619627 L306.279084,79.4619627 C310.510982,79.4619627 313.685264,82.6362452 313.685264,86.8681435 L313.685264,100.094081 C313.685264,104.32598 310.510982,107.500262 306.279084,107.500262 L291.99553,107.500262 C287.762914,107.500262 284.588632,104.32598 284.588632,100.094081 L284.588632,86.8681435 Z" id="Fill-28" fill="#FFFFFF" mask="url(#mask-2)"></path>
                <path d="M320.029524,79.9908424 L325.849281,79.9908424 L327.17166,83.1651249 L327.435705,83.1651249 C327.435705,83.1651249 329.023564,79.4620345 333.520225,79.4620345 L340.132835,79.4620345 L340.132835,86.8682153 L332.197846,86.8682153 C329.287609,86.8682153 327.965948,88.1905938 327.965948,91.1001136 L327.965948,106.971526 L320.029524,106.971526 L320.029524,79.9908424 Z" id="Fill-29" fill="#FFFFFF" mask="url(#mask-2)"></path>
                <polygon id="Fill-30" fill="#FFFFFF" mask="url(#mask-2)" points="13.754674 146.227082 -7.17514124e-05 146.227082 -7.17514124e-05 138.820902 35.9739339 138.820902 35.9739339 143.581608 33.3284593 146.227082 22.2191881 146.227082 22.2191881 175.852523 13.754674 175.852523"></polygon>
                <path d="M40.7315548,139.34971 L48.6665435,139.34971 L48.6665435,151.517314 L48.9313062,151.517314 C48.9313062,151.517314 50.5184475,148.343032 55.014391,148.343032 L60.8348655,148.343032 C65.0667638,148.343032 68.2410463,151.517314 68.2410463,155.749212 L68.2410463,175.852523 L60.3046226,175.852523 L60.3046226,158.129924 C60.3046226,156.013975 59.5117695,155.220405 57.3958203,155.220405 L52.8984418,155.220405 C49.988922,155.220405 48.6665435,156.542783 48.6665435,159.45302 L48.6665435,175.852523 L40.7315548,175.852523 L40.7315548,139.34971 Z" id="Fill-31" fill="#FFFFFF" mask="url(#mask-2)"></path>
                <path d="M94.6887605,159.452733 L94.6887605,157.336784 C94.6887605,155.220835 93.8951898,154.427264 91.7785232,154.427264 L85.4306757,154.427264 C83.314009,154.427264 82.5211559,155.220835 82.5211559,157.336784 L82.5211559,159.452733 L94.6887605,159.452733 Z M74.5854497,155.749643 C74.5854497,151.517027 77.7597322,148.343462 81.992348,148.343462 L95.2175684,148.343462 C99.4501842,148.343462 102.624467,151.517027 102.624467,155.749643 L102.624467,165.271773 L82.5211559,165.271773 L82.5211559,166.858914 C82.5211559,168.974863 83.314009,169.768434 85.4306757,169.768434 L101.301371,169.768434 L101.301371,175.852236 L81.992348,175.852236 C77.7597322,175.852236 74.5854497,172.678671 74.5854497,168.446055 L74.5854497,155.749643 Z" id="Fill-32" fill="#FFFFFF" mask="url(#mask-2)"></path>
                <polygon id="Fill-33" fill="#FFFFFF" mask="url(#mask-2)" points="133.039316 146.227082 119.284571 146.227082 119.284571 138.820902 155.258576 138.820902 155.258576 143.581608 152.613102 146.227082 141.503831 146.227082 141.503831 175.852523 133.039316 175.852523"></polygon>
                <path d="M154.461705,148.872198 L160.281462,148.872198 L161.603841,152.046481 L161.867886,152.046481 C161.867886,152.046481 163.455745,148.34339 167.952406,148.34339 L174.565016,148.34339 L174.565016,155.749571 L166.630027,155.749571 C163.71979,155.749571 162.398129,157.07195 162.398129,159.981469 L162.398129,175.852882 L154.461705,175.852882 L154.461705,148.872198 Z" id="Fill-34" fill="#FFFFFF" mask="url(#mask-2)"></path>
                <path d="M179.059022,148.872198 L186.995446,148.872198 L186.995446,166.594797 C186.995446,168.710746 187.788299,169.504317 189.904248,169.504317 L194.401627,169.504317 C197.310429,169.504317 198.633525,168.181938 198.633525,165.271701 L198.633525,148.872198 L206.568514,148.872198 L206.568514,175.852882 L200.749474,175.852882 L199.427095,172.678599 L199.162333,172.678599 C199.162333,172.678599 197.575909,176.38169 193.078531,176.38169 L186.465203,176.38169 C182.233305,176.38169 179.059022,173.207407 179.059022,168.975509 L179.059022,148.872198 Z" id="Fill-35" fill="#FFFFFF" mask="url(#mask-2)"></path>
                <path d="M212.913921,156.278523 C212.913921,152.046624 216.088204,148.872342 220.320102,148.872342 L237.777938,148.872342 L237.777938,153.369003 L235.397944,155.749715 L223.759147,155.749715 C221.643198,155.749715 220.849628,156.543285 220.849628,158.659234 L220.849628,166.065415 C220.849628,168.181364 221.643198,168.974935 223.759147,168.974935 L237.777938,168.974935 L237.777938,175.852308 L220.320102,175.852308 C216.088204,175.852308 212.913921,172.678025 212.913921,168.446127 L212.913921,156.278523 Z" id="Fill-36" fill="#FFFFFF" mask="url(#mask-2)"></path>
                <polygon id="Fill-37" fill="#FFFFFF" mask="url(#mask-2)" points="243.593964 139.34971 251.529671 139.34971 251.529671 158.923495 257.34871 158.923495 264.226083 148.87184 271.103456 148.87184 271.103456 152.575647 264.226083 162.097777 271.632264 172.149433 271.632264 175.852523 264.490846 175.852523 257.34871 165.536823 251.529671 165.536823 251.529671 175.852523 243.593964 175.852523"></polygon>
                <path d="M276.919554,175.852667 L284.854542,175.852667 L284.854542,148.871983 L276.919554,148.871983 L276.919554,175.852667 Z M276.919554,145.698418 L284.854542,145.698418 L284.854542,137.762712 L276.919554,137.762712 L276.919554,145.698418 Z" id="Fill-38" fill="#FFFFFF" mask="url(#mask-2)"></path>
                <path d="M291.994597,148.872198 L297.814354,148.872198 L299.136733,152.046481 L299.400778,152.046481 C299.400778,152.046481 300.988637,148.34339 305.485298,148.34339 L312.097908,148.34339 C316.329806,148.34339 319.504089,151.517673 319.504089,155.749571 L319.504089,175.852882 L311.5691,175.852882 L311.5691,158.130283 C311.5691,156.014334 310.775529,155.220763 308.65958,155.220763 L304.162919,155.220763 C301.252682,155.220763 299.931021,156.543142 299.931021,159.452662 L299.931021,175.852882 L291.994597,175.852882 L291.994597,148.872198 Z" id="Fill-39" fill="#FFFFFF" mask="url(#mask-2)"></path>
                <path d="M342.248641,160.246232 C344.100545,160.246232 344.894833,159.452662 344.894833,157.600758 L344.894833,157.07195 C344.894833,155.220763 344.100545,154.427193 342.248641,154.427193 L336.430319,154.427193 C334.578415,154.427193 333.784127,155.220763 333.784127,157.07195 L333.784127,157.600758 C333.784127,159.452662 334.578415,160.246232 336.430319,160.246232 L342.248641,160.246232 Z M344.100545,179.29121 C345.687686,179.29121 346.480539,178.497639 346.480539,176.910498 C346.480539,175.323356 345.687686,174.529786 344.100545,174.529786 L334.578415,174.529786 C332.991273,174.529786 332.197703,175.323356 332.197703,176.910498 C332.197703,178.497639 332.991273,179.29121 334.578415,179.29121 L344.100545,179.29121 Z M324.261997,176.116927 C324.261997,171.091458 329.02342,170.297888 329.02342,170.297888 L329.02342,169.768362 C329.02342,169.768362 327.171516,169.239554 327.171516,167.123605 C327.171516,164.742893 329.02342,164.214085 329.02342,164.214085 L329.02342,163.68456 C329.02342,163.68456 325.849855,162.626944 325.849855,158.394328 L325.849855,155.749571 C325.849855,151.516955 329.02342,148.34339 333.256036,148.34339 L342.513403,148.34339 L344.629353,143.846729 L351.24268,143.846729 L351.24268,147.813865 L348.861968,149.401006 L348.861968,149.930532 C348.861968,149.930532 352.829104,150.988147 352.829104,155.749571 L352.829104,158.923854 C352.829104,163.155752 349.654821,166.330034 345.422923,166.330034 L334.84246,166.330034 C334.313652,166.330034 333.784127,166.858842 333.784127,167.388368 C333.784127,167.917176 334.313652,168.445984 334.84246,168.445984 L347.010782,168.445984 C351.24268,168.445984 354.416963,171.620266 354.416963,175.852164 L354.416963,177.968831 C354.416963,182.200729 351.24268,185.375012 347.010782,185.375012 L331.668177,185.375012 C327.435562,185.375012 324.261997,182.200729 324.261997,177.968831 L324.261997,176.116927 Z" id="Fill-40" fill="#FFFFFF" mask="url(#mask-2)"></path>
                <polygon id="Fill-41" fill="#FFFFFF" mask="url(#mask-2)" points="3.17428249 244.733305 11.6387966 244.733305 11.6387966 207.701684 3.17428249 207.701684"></polygon>
                <path d="M19.3077311,217.753554 L25.1267706,217.753554 L26.4498667,220.927837 L26.7139119,220.927837 C26.7139119,220.927837 28.3010531,217.224746 32.7984316,217.224746 L39.4110418,217.224746 C43.6429401,217.224746 46.8172226,220.399029 46.8172226,224.630927 L46.8172226,244.734238 L38.8815164,244.734238 L38.8815164,227.011639 C38.8815164,224.89569 38.0886633,224.102119 35.9727141,224.102119 L31.4753356,224.102119 C28.5658158,224.102119 27.2434373,225.424498 27.2434373,228.334018 L27.2434373,244.734238 L19.3077311,244.734238 L19.3077311,217.753554 Z" id="Fill-42" fill="#FFFFFF" mask="url(#mask-2)"></path>
                <path d="M69.5617028,238.385601 C72.4719401,238.385601 73.7936011,237.063223 73.7936011,234.153703 L73.7936011,224.630855 L64.007426,224.630855 C61.8914768,224.630855 61.0971887,225.424426 61.0971887,227.540375 L61.0971887,235.476081 C61.0971887,237.592031 61.8914768,238.385601 64.007426,238.385601 L69.5617028,238.385601 Z M53.1622,225.159663 C53.1622,220.927765 56.335765,217.753482 60.5683808,217.753482 L73.7936011,217.753482 L73.7936011,208.231353 L81.7293073,208.231353 L81.7293073,244.734166 L75.9102678,244.734166 L74.5878893,241.559884 L74.3231266,241.559884 C74.3231266,241.559884 72.7359853,245.262974 68.2393243,245.262974 L60.5683808,245.262974 C56.335765,245.262974 53.1622,242.088692 53.1622,237.856793 L53.1622,225.159663 Z" id="Fill-43" fill="#FFFFFF" mask="url(#mask-2)"></path>
                <path d="M88.8680706,217.753554 L96.8037768,217.753554 L96.8037768,235.476153 C96.8037768,237.592102 97.5973475,238.385673 99.7132966,238.385673 L104.209958,238.385673 C107.119477,238.385673 108.441856,237.063294 108.441856,234.153057 L108.441856,217.753554 L116.377562,217.753554 L116.377562,244.734238 L110.557805,244.734238 L109.236144,241.559955 L108.971381,241.559955 C108.971381,241.559955 107.38424,245.263046 102.887579,245.263046 L96.2742514,245.263046 C92.0423531,245.263046 88.8680706,242.088763 88.8680706,237.856865 L88.8680706,217.753554 Z" id="Fill-44" fill="#FFFFFF" mask="url(#mask-2)"></path>
                <path d="M122.193229,238.385601 L138.328687,238.385601 C139.651066,238.385601 140.179873,237.856793 140.179873,236.79846 C140.179873,235.740127 139.651066,235.264415 137.799162,234.947273 L128.277032,233.360132 C124.838704,232.830607 122.193229,230.18585 122.193229,227.011567 L122.193229,224.366093 C122.193229,220.663002 125.102749,217.753482 128.806557,217.753482 L147.057246,217.753482 L147.057246,221.721336 L144.677252,224.102047 L131.98084,224.102047 C130.657744,224.102047 130.128936,224.630855 130.128936,225.689189 C130.128936,226.746805 130.657744,227.223234 132.50893,227.540375 L142.03106,229.127516 C145.470105,229.656324 148.11558,232.301799 148.11558,235.476081 L148.11558,238.120838 C148.11558,241.823929 145.205342,244.734166 141.502969,244.734166 L122.193229,244.734166 L122.193229,238.385601 Z" id="Fill-45" fill="#FFFFFF" mask="url(#mask-2)"></path>
                <path d="M155.783223,224.101832 L151.286562,224.101832 L151.286562,217.753267 L156.312748,217.753267 L158.957505,210.347086 L163.719646,210.347086 L163.719646,217.753267 L172.183443,217.753267 L172.183443,221.72112 L169.802731,224.101832 L163.719646,224.101832 L163.719646,234.947058 C163.719646,237.063007 164.512499,237.856578 166.628449,237.856578 L172.977014,237.856578 L172.977014,244.733951 L163.189403,244.733951 C158.957505,244.733951 155.783223,241.559668 155.783223,237.32777 L155.783223,224.101832 Z" id="Fill-46" fill="#FFFFFF" mask="url(#mask-2)"></path>
                <path d="M178.794116,217.753554 L184.612438,217.753554 L185.935534,220.927837 L186.200297,220.927837 C186.200297,220.927837 187.78672,217.224746 192.284099,217.224746 L198.897427,217.224746 L198.897427,224.630927 L190.961003,224.630927 C188.051483,224.630927 186.729105,225.953306 186.729105,228.862825 L186.729105,244.734238 L178.794116,244.734238 L178.794116,217.753554 Z" id="Fill-47" fill="#FFFFFF" mask="url(#mask-2)"></path>
                <path d="M203.919738,246.849972 L208.68188,246.849972 C210.003541,246.849972 210.797829,246.056401 211.325919,244.46926 L211.325919,243.940452 L201.274981,221.456429 L201.274981,217.753339 L208.68188,217.753339 L215.823298,235.740701 L216.352106,235.740701 L222.436625,217.753339 L229.842806,217.753339 L229.842806,221.456429 L220.584721,245.791638 C218.679721,250.817825 215.823298,253.727345 210.533066,253.727345 L203.919738,253.727345 L203.919738,246.849972 Z" id="Fill-48" fill="#FFFFFF" mask="url(#mask-2)"></path>
            </g>
        </g>
    </g>
</svg>